#!OML:ASF X:\für Bonn\!DataBase\2005_08_11_Bastian_Final\c3d\Bastian.ASF
:FULLY-SPECIFIED
:DEGREES
47
root -1.44947 12.1843 2.14562 164.525 -1.71147 -170.461
lowerback 24.9703 -1.1265 6.28733
upperback 5.96783 -1.10052 2.6015
thorax -7.25475 -1.22381 -0.328078
lowerneck -6.24349 -6.49574 -4.10499
upperneck -5.99679 -7.74232 9.1819
head -0.257037 -3.59679 3.50999
rclavicle 1.67973e-014 -1.49089e-014
rhumerus 72.1483 14.8823 10.7352
rradius 39.2292
rwrist -64.2897
rhand -47.4638 -9.95673
rfingers 7.12502
rthumb -20.1532 -38.9314
lclavicle 1.67973e-014 -1.49089e-014
lhumerus 72.6488 -19.9966 -44.0644
lradius 31.0183
lwrist 36.7407
lhand -41.4345 21.0858
lfingers 7.12502
lthumb -14.3504 50.5698
rfemur -33.2569 -10.2244 33.1541
rtibia 104.455
rfoot -45.0673 -15.0803
rtoes -5.75372
lfemur -34.9149 3.9106 -9.52598
ltibia 109.898
lfoot -45.772 -5.01113
ltoes -18.396
48
root -1.45943 11.9996 2.1373 164.449 -1.61818 -170.415
lowerback 25.2384 -1.10779 6.40667
upperback 5.99038 -1.04541 2.5931
thorax -7.36171 -1.20968 -0.413624
lowerneck -6.31415 -6.51633 -4.03278
upperneck -6.06024 -7.75669 9.2248
head -0.265372 -3.59991 3.50974
rclavicle -6.78353e-015 3.37934e-015
rhumerus 72.0825 14.8802 11.1566
rradius 39.3633
rwrist -64.8431
rhand -47.7249 -9.91751
rfingers 7.12502
rthumb -20.404 -38.8655
lclavicle -6.78353e-015 3.37934e-015
lhumerus 72.5586 -19.9159 -44.1305
lradius 31.0641
lwrist 36.8434
lhand -41.479 21.1942
lfingers 7.12502
lthumb -14.3932 50.6752
rfemur -34.1503 -9.93818 33.4568
rtibia 106.411
rfoot -45.5855 -15.6999
rtoes -6.00875
lfemur -35.7493 4.34489 -9.41348
ltibia 111.889
lfoot -46.3696 -5.09105
ltoes -18.7426
49
root -1.46907 11.8169 2.12939 164.37 -1.50295 -170.377
lowerback 25.5114 -1.08076 6.48239
upperback 6.01844 -0.991334 2.60792
thorax -7.46392 -1.19674 -0.448713
lowerneck -6.40716 -6.52559 -3.969
upperneck -6.1098 -7.75854 9.22481
head -0.267952 -3.59669 3.49576
rclavicle -1.27471e-014 2.76311e-014
rhumerus 72.0562 14.8645 11.4012
rradius 39.4138
rwrist -65.1883
rhand -47.8743 -9.92675
rfingers 7.12502
rthumb -20.5476 -38.8593
lclavicle -1.27471e-014 2.76311e-014
lhumerus 72.5063 -19.8748 -44.5562
lradius 31.2024
lwrist 37.2973
lhand -41.6291 21.3544
lfingers 7.12502
lthumb -14.5378 50.825
rfemur -35.0057 -9.61677 33.7704
rtibia 108.328
rfoot -46.0485 -16.3246
rtoes -6.18384
lfemur -36.557 4.82638 -9.28406
ltibia 113.855
lfoot -46.9438 -5.19896
ltoes -19.104
50
root -1.47898 11.6357 2.12251 164.297 -1.41315 -170.33
lowerback 25.7993 -1.06855 6.59503
upperback 6.03267 -0.942482 2.59728
thorax -7.58947 -1.18601 -0.530869
lowerneck -6.50933 -6.54854 -3.86841
upperneck -6.14432 -7.78147 9.22311
head -0.264386 -3.60413 3.473
rclavicle 2.18166e-014 -1.21259e-014
rhumerus 71.975 14.8498 11.5224
rradius 39.4207
rwrist -65.4247
rhand -47.9501 -9.84973
rfingers 7.12502
rthumb -20.6205 -38.7744
lclavicle 2.18166e-014 -1.21259e-014
lhumerus 72.4717 -19.8086 -44.9713
lradius 31.3303
lwrist 37.6393
lhand -41.7634 21.5464
lfingers 7.12502
lthumb -14.6672 51.0077
rfemur -35.8733 -9.30802 34.1
rtibia 110.217
rfoot -46.5052 -16.9484
rtoes -6.42382
lfemur -37.3799 5.34184 -9.13976
ltibia 115.799
lfoot -47.4853 -5.31218
ltoes -19.4664
51
root -1.48815 11.4573 2.11443 164.223 -1.3556 -170.288
lowerback 26.0779 -1.0589 6.67522
upperback 6.04158 -0.902845 2.60042
thorax -7.71631 -1.17884 -0.576896
lowerneck -6.563 -6.56112 -3.7902
upperneck -6.21559 -7.78773 9.22507
head -0.280982 -3.60456 3.45871
rclavicle 7.10655e-015 2.48481e-014
rhumerus 71.9047 14.8279 11.6418
rradius 39.4069
rwrist -65.594
rhand -48.0417 -9.82184
rfingers 7.12502
rthumb -20.7085 -38.737
lclavicle 7.10655e-015 2.48481e-014
lhumerus 72.4505 -19.7483 -45.4214
lradius 31.4515
lwrist 37.9825
lhand -41.8725 21.6851
lfingers 7.12502
lthumb -14.7723 51.1387
rfemur -36.7107 -9.06271 34.4283
rtibia 112.073
rfoot -46.8964 -17.682
rtoes -6.95883
lfemur -38.1892 5.85247 -8.99873
ltibia 117.699
lfoot -47.9916 -5.4646
ltoes -19.7127
52
root -1.49736 11.2807 2.10797 164.141 -1.31426 -170.246
lowerback 26.3635 -1.05207 6.7551
upperback 6.06976 -0.872058 2.60357
thorax -7.82487 -1.1774 -0.620305
lowerneck -6.68559 -6.58269 -3.74574
upperneck -6.24724 -7.80498 9.24291
head -0.270042 -3.60732 3.45247
rclavicle -7.7526e-015 1.94809e-014
rhumerus 71.8111 14.7404 11.6469
rradius 39.3753
rwrist -65.72
rhand -48.0632 -9.69607
rfingers 7.12502
rthumb -20.7291 -38.6089
lclavicle -7.7526e-015 1.94809e-014
lhumerus 72.3551 -19.6559 -45.7431
lradius 31.5454
lwrist 38.2134
lhand -41.9232 21.7447
lfingers 7.12502
lthumb -14.8212 51.1947
rfemur -37.5366 -8.82208 34.7534
rtibia 113.895
rfoot -47.2387 -18.3645
rtoes -7.31292
lfemur -38.9701 6.38841 -8.85388
ltibia 119.552
lfoot -48.4854 -5.58003
ltoes -20.1464
53
root -1.50671 11.1051 2.10271 164.09 -1.27705 -170.204
lowerback 26.6483 -1.05298 6.82801
upperback 6.07263 -0.845282 2.60311
thorax -7.96164 -1.17623 -0.66212
lowerneck -6.71971 -6.5982 -3.69118
upperneck -6.34384 -7.81125 9.26176
head -0.29631 -3.6077 3.44955
rclavicle -5.1684e-015 -1.39149e-014
rhumerus 71.7469 14.655 11.5821
rradius 39.2985
rwrist -65.7382
rhand -48.0402 -9.58294
rfingers 7.12502
rthumb -20.707 -38.4982
lclavicle -5.1684e-015 -1.39149e-014
lhumerus 72.2779 -19.5653 -46.1107
lradius 31.6117
lwrist 38.4613
lhand -41.9411 21.6697
lfingers 7.12502
lthumb -14.8385 51.1184
rfemur -38.41 -8.62373 35.0879
rtibia 115.698
rfoot -47.5186 -19.1554
rtoes -7.99325
lfemur -39.7735 6.97731 -8.70496
ltibia 121.354
lfoot -48.9304 -5.73108
ltoes -20.4303
54
root -1.51585 10.9328 2.09815 164.03 -1.2603 -170.18
lowerback 26.9409 -1.04758 6.88913
upperback 6.08538 -0.815389 2.59483
thorax -8.09074 -1.17387 -0.707184
lowerneck -6.81099 -6.62307 -3.64354
upperneck -6.4195 -7.82872 9.28169
head -0.304945 -3.61118 3.44547
rclavicle 1.82882e-014 -1.98785e-016
rhumerus 71.6554 14.5392 11.5307
rradius 39.2211
rwrist -65.8438
rhand -48.0582 -9.32195
rfingers 7.12502
rthumb -20.7243 -38.2354
lclavicle 1.82882e-014 -1.98785e-016
lhumerus 72.2178 -19.43 -46.5139
lradius 31.65
lwrist 38.6909
lhand -41.9061 21.51
lfingers 7.12502
lthumb -14.8047 50.9612
rfemur -39.2616 -8.46867 35.3861
rtibia 117.464
rfoot -47.766 -19.8212
rtoes -8.46085
lfemur -40.5574 7.59787 -8.57508
ltibia 123.097
lfoot -49.348 -5.82184
ltoes -20.9276
55
root -1.52577 10.7639 2.09402 163.991 -1.23862 -170.133
lowerback 27.2204 -1.04804 6.96823
upperback 6.08507 -0.784689 2.59606
thorax -8.2275 -1.17085 -0.752432
lowerneck -6.85589 -6.64816 -3.60242
upperneck -6.51247 -7.84623 9.3137
head -0.32625 -3.61629 3.44868
rclavicle -6.85807e-015 -1.33186e-014
rhumerus 71.598 14.423 11.5114
rradius 39.1324
rwrist -65.9524
rhand -48.0433 -9.03004
rfingers 7.12502
rthumb -20.71 -37.945
lclavicle -6.85807e-015 -1.33186e-014
lhumerus 72.107 -19.2962 -46.7261
lradius 31.6398
lwrist 38.7797
lhand -41.8661 21.2089
lfingers 7.12502
lthumb -14.7661 50.6629
rfemur -40.1427 -8.3243 35.7162
rtibia 119.192
rfoot -47.931 -20.5826
rtoes -9.06136
lfemur -41.3479 8.26543 -8.39367
ltibia 124.787
lfoot -49.7077 -6.03689
ltoes -21.0486
56
root -1.53588 10.6014 2.08935 163.937 -1.22902 -170.134
lowerback 27.5179 -1.04207 6.98985
upperback 6.08498 -0.759825 2.58961
thorax -8.37358 -1.16963 -0.771257
lowerneck -6.89192 -6.66716 -3.57599
upperneck -6.60693 -7.85583 9.3357
head -0.34992 -3.61782 3.45183
rclavicle -3.8763e-015 9.54166e-015
rhumerus 71.5513 14.3082 11.5081
rradius 39.0557
rwrist -66.0617
rhand -48.0631 -8.75131
rfingers 7.12502
rthumb -20.729 -37.6642
lclavicle -3.8763e-015 9.54166e-015
lhumerus 71.9928 -19.1597 -46.9174
lradius 31.61
lwrist 38.8111
lhand -41.7839 20.8907
lfingers 7.12502
lthumb -14.687 50.3504
rfemur -40.9786 -8.19252 35.9747
rtibia 120.889
rfoot -48.1226 -21.1762
rtoes -9.44325
lfemur -42.0621 8.97095 -8.27967
ltibia 126.394
lfoot -50.0459 -6.15602
ltoes -21.3697
57
root -1.54624 10.4455 2.08419 163.889 -1.23152 -170.14
lowerback 27.7771 -1.0384 7.01368
upperback 6.11685 -0.748904 2.57286
thorax -8.46476 -1.17543 -0.800128
lowerneck -6.98572 -6.69215 -3.53022
upperneck -6.69763 -7.87034 9.36626
head -0.362624 -3.61923 3.4521
rclavicle -9.29318e-015 4.77083e-015
rhumerus 71.4816 14.1481 11.5628
rradius 39.0038
rwrist -66.2254
rhand -48.0685 -8.43838
rfingers 7.12502
rthumb -20.7342 -37.3507
lclavicle -9.29318e-015 4.77083e-015
lhumerus 71.8306 -18.9808 -47.0431
lradius 31.5664
lwrist 38.7787
lhand -41.7021 20.6351
lfingers 7.12502
lthumb -14.6082 50.1006
rfemur -41.7975 -8.08751 36.201
rtibia 122.545
rfoot -48.2984 -21.6865
rtoes -9.70673
lfemur -42.7466 9.70735 -8.15217
ltibia 127.933
lfoot -50.3212 -6.3715
ltoes -21.6115
58
root -1.55751 10.2937 2.07927 163.835 -1.24872 -170.209
lowerback 28.0573 -1.02459 6.99275
upperback 6.12868 -0.729969 2.53322
thorax -8.58919 -1.17501 -0.831128
lowerneck -7.02643 -6.72265 -3.48071
upperneck -6.78233 -7.89727 9.38627
head -0.382342 -3.62958 3.44932
rclavicle 2.48481e-015 -1.37161e-014
rhumerus 71.4279 14.0412 11.7617
rradius 38.9742
rwrist -66.4342
rhand -48.0921 -8.24826
rfingers 7.12502
rthumb -20.7569 -37.1581
lclavicle 2.48481e-015 -1.37161e-014
lhumerus 71.7577 -18.8176 -47.2284
lradius 31.5147
lwrist 38.81
lhand -41.6608 20.4374
lfingers 7.12502
lthumb -14.5684 49.9058
rfemur -42.6091 -8.02624 36.3264
rtibia 124.179
rfoot -48.4786 -22.0236
rtoes -9.72605
lfemur -43.3827 10.483 -8.10687
ltibia 129.407
lfoot -50.5647 -6.4989
ltoes -22.0047
59
root -1.56787 10.1416 2.07482 163.818 -1.27943 -170.319
lowerback 28.2998 -1.00525 6.91336
upperback 6.13206 -0.719117 2.48198
thorax -8.70566 -1.17464 -0.840229
lowerneck -7.03104 -5.90245 -3.54462
upperneck -7.01381 -8.07555 9.37171
head -0.452301 -4.31121 3.46265
rclavicle 1.5704e-014 1.39149e-015
rhumerus 71.3701 13.9571 12.0509
rradius 38.9996
rwrist -66.6613
rhand -48.1006 -8.14704
rfingers 7.12502
rthumb -20.765 -37.056
lclavicle 1.5704e-014 1.39149e-015
lhumerus 71.6713 -18.6708 -47.341
lradius 31.4894
lwrist 38.8062
lhand -41.665 20.3769
lfingers 7.12502
lthumb -14.5724 49.845
rfemur -43.4824 -7.99154 36.4024
rtibia 125.822
rfoot -48.6468 -22.319
rtoes -9.61822
lfemur -44.0708 11.3217 -8.11115
ltibia 130.869
lfoot -50.7736 -6.59418
ltoes -22.3961
